<svg width="13" height="14" viewBox="0 0 13 14" fill="none" xmlns="http://www.w3.org/2000/svg">
<path d="M5.9585 9.95837H7.04183V7.79171H9.2085V6.70837H7.04183V4.54171H5.9585V6.70837H3.79183V7.79171H5.9585V9.95837ZM6.50016 12.6667C5.75086 12.6667 5.04669 12.5268 4.38766 12.2469C3.72864 11.958 3.15537 11.5698 2.66787 11.0823C2.18037 10.5948 1.79218 10.0216 1.50329 9.36254C1.22343 8.70351 1.0835 7.99935 1.0835 7.25004C1.0835 6.50073 1.22343 5.79657 1.50329 5.13754C1.79218 4.47851 2.18037 3.90525 2.66787 3.41775C3.15537 2.93025 3.72864 2.54657 4.38766 2.26671C5.04669 1.97782 5.75086 1.83337 6.50016 1.83337C7.24947 1.83337 7.95364 1.97782 8.61266 2.26671C9.27169 2.54657 9.84496 2.93025 10.3325 3.41775C10.82 3.90525 11.2036 4.47851 11.4835 5.13754C11.7724 5.79657 11.9168 6.50073 11.9168 7.25004C11.9168 7.99935 11.7724 8.70351 11.4835 9.36254C11.2036 10.0216 10.82 10.5948 10.3325 11.0823C9.84496 11.5698 9.27169 11.958 8.61266 12.2469C7.95364 12.5268 7.24947 12.6667 6.50016 12.6667ZM6.50016 11.5834C7.70989 11.5834 8.73454 11.1636 9.57412 10.324C10.4137 9.48441 10.8335 8.45976 10.8335 7.25004C10.8335 6.04032 10.4137 5.01567 9.57412 4.17608C8.73454 3.3365 7.70989 2.91671 6.50016 2.91671C5.29044 2.91671 4.26579 3.3365 3.4262 4.17608C2.58662 5.01567 2.16683 6.04032 2.16683 7.25004C2.16683 8.45976 2.58662 9.48441 3.4262 10.324C4.26579 11.1636 5.29044 11.5834 6.50016 11.5834Z" fill="#1D1B20"/>
</svg>
