<svg width="20" height="20" viewBox="0 0 20 20" fill="none" xmlns="http://www.w3.org/2000/svg">
<g clip-path="url(#clip0_326_2291)">
<path d="M9.16675 3.33344H3.33341C2.89139 3.33344 2.46746 3.50904 2.1549 3.8216C1.84234 4.13416 1.66675 4.55808 1.66675 5.00011V16.6668C1.66675 17.1088 1.84234 17.5327 2.1549 17.8453C2.46746 18.1578 2.89139 18.3334 3.33341 18.3334H15.0001C15.4421 18.3334 15.866 18.1578 16.1786 17.8453C16.4912 17.5327 16.6667 17.1088 16.6667 16.6668V10.8334M15.4167 2.08344C15.7483 1.75192 16.1979 1.56567 16.6667 1.56567C17.1356 1.56567 17.5852 1.75192 17.9167 2.08344C18.2483 2.41496 18.4345 2.8646 18.4345 3.33344C18.4345 3.80228 18.2483 4.25192 17.9167 4.58344L10.0001 12.5001L6.66675 13.3334L7.50008 10.0001L15.4167 2.08344Z" stroke="#585858" stroke-width="2" stroke-linecap="round" stroke-linejoin="round"/>
</g>
<defs>
<clipPath id="clip0_326_2291">
<rect width="20" height="20" fill="white"/>
</clipPath>
</defs>
</svg>
